#!OML:ASF X:\für Bonn\!DataBase\2005_08_11_Bastian_Final\c3d\Bastian.ASF
:FULLY-SPECIFIED
:DEGREES
61
root 1.76565 23.0626 10.463 715.692 -0.70557 -3.97711
lowerback 13.4801 1.75678 -0.965522
upperback 5.59076 2.14229 -1.8963
thorax -1.63725 1.0739 -1.74266
lowerneck -9.83189 -5.30239 -14.7404
upperneck 3.76128 -6.19769 14.0889
head 3.65177 -2.74487 6.3809
rclavicle 8.34896e-015 -2.06736e-014
rhumerus -47.1266 13.5382 -99.3711
rradius 74.7429
rwrist 4.43287
rhand -15.3742 19.8352
rfingers 7.12502
rthumb 10.8039 -9.86697
lclavicle 8.34896e-015 -2.06736e-014
lhumerus -41.9296 6.63493 72.917
lradius 63.3083
lwrist -174.175
lhand -26.276 6.75135
lfingers 7.12502
lthumb 0.279156 36.7309
rfemur -16.5686 -1.25376 26.3366
rtibia 44.438
rfoot 8.65969 -15.318
rtoes 41.4873
lfemur -20.1846 9.5155 -17.065
ltibia 48.7119
lfoot 15.4761 -11.9652
ltoes -37.0664
62
root 1.74844 22.8902 10.6568 715.823 -0.619561 -4.22705
lowerback 13.2747 1.80335 -0.927857
upperback 5.47552 2.21318 -1.82573
thorax -1.64771 1.10885 -1.69558
lowerneck -9.76878 -5.38749 -14.5486
upperneck 3.90611 -6.35363 14.0172
head 3.69854 -2.82374 6.31327
rclavicle 8.34896e-015 7.95139e-015
rhumerus -47.1264 12.986 -99.2501
rradius 72.6803
rwrist 4.58822
rhand -16.0645 19.8323
rfingers 7.12502
rthumb 10.1379 -9.9035
lclavicle 8.34896e-015 7.95139e-015
lhumerus -41.7594 7.96416 72.3812
lradius 60.9933
lwrist -175.218
lhand -25.6424 6.27028
lfingers 7.12502
lthumb 0.891147 36.2482
rfemur -16.5044 -1.41091 26.6463
rtibia 43.4033
rfoot 9.16229 -14.8515
rtoes 40.9596
lfemur -20.0147 9.05423 -16.6691
ltibia 47.6814
lfoot 15.0261 -11.2118
ltoes -37.5605
63
root 1.73145 22.7041 10.8538 715.908 -0.540499 -4.50936
lowerback 13.055 1.85431 -0.881818
upperback 5.37667 2.29241 -1.7189
thorax -1.63419 1.14781 -1.61555
lowerneck -9.66459 -5.46279 -14.4203
upperneck 3.9507 -6.48901 14
head 3.70959 -2.89286 6.27634
rclavicle -3.97569e-016 1.59028e-014
rhumerus -47.0577 12.4724 -99.1013
rradius 70.6682
rwrist 4.5163
rhand -16.653 19.8619
rfingers 7.12502
rthumb 9.57013 -9.90071
lclavicle -3.97569e-016 1.59028e-014
lhumerus -41.5954 9.34757 71.8298
lradius 58.6687
lwrist -176.206
lhand -25.0212 5.85939
lfingers 7.12502
lthumb 1.49104 35.8339
rfemur -16.4237 -1.5748 26.9784
rtibia 42.487
rfoot 9.47232 -14.672
rtoes 40.7712
lfemur -19.7429 8.53135 -16.2138
ltibia 46.6944
lfoot 14.679 -10.2942
ltoes -37.3427
64
root 1.71789 22.5048 11.0522 716.019 -0.442039 -4.77705
lowerback 12.7625 1.86942 -0.798824
upperback 5.3096 2.3298 -1.64388
thorax -1.5462 1.16703 -1.57985
lowerneck -9.74225 -5.53538 -14.3038
upperneck 4.04264 -6.61107 14.1222
head 3.76904 -2.94321 6.28483
rclavicle -2.8625e-014 1.27222e-014
rhumerus -46.8811 12.0227 -98.9771
rradius 68.6917
rwrist 4.26431
rhand -17.1452 19.936
rfingers 7.12502
rthumb 9.09521 -9.84794
lclavicle -2.8625e-014 1.27222e-014
lhumerus -41.3625 10.9333 71.1746
lradius 56.2997
lwrist -177.28
lhand -24.3847 5.58458
lfingers 7.12502
lthumb 2.10584 35.5539
rfemur -16.4232 -1.89986 27.2677
rtibia 41.6925
rfoot 9.63945 -14.6895
rtoes 40.8411
lfemur -19.497 7.93041 -15.7888
ltibia 45.78
lfoot 14.33 -9.29221
ltoes -37.0143
65
root 1.70671 22.2964 11.2513 716.125 -0.31885 -5.10789
lowerback 12.4512 1.88177 -0.625374
upperback 5.23979 2.37429 -1.54374
thorax -1.44789 1.19078 -1.569
lowerneck -9.85904 -5.61588 -14.2361
upperneck 4.15301 -6.73954 14.3014
head 3.84557 -2.99342 6.31867
rclavicle 9.14409e-015 -1.90833e-014
rhumerus -46.7422 11.5588 -98.8136
rradius 66.6708
rwrist 3.91458
rhand -17.5761 20.2172
rfingers 7.12502
rthumb 8.67946 -9.5844
lclavicle 9.14409e-015 -1.90833e-014
lhumerus -41.1085 12.4632 70.5399
lradius 53.9455
lwrist -178.29
lhand -23.7176 5.30466
lfingers 7.12502
lthumb 2.75004 35.2667
rfemur -16.4615 -2.32779 27.608
rtibia 41.0281
rfoot 9.66344 -14.8535
rtoes 41.1721
lfemur -19.2454 7.2925 -15.3029
ltibia 44.9424
lfoot 14.047 -8.24358
ltoes -36.8586
